<?xml version="1.0" standalone="no"?>
<!DOCTYPE svg PUBLIC "-//W3C//DTD SVG 20010904//EN"
 "http://www.w3.org/TR/2001/REC-SVG-20010904/DTD/svg10.dtd">
<svg version="1.0" xmlns="http://www.w3.org/2000/svg"
 width="283.000000pt" height="283.000000pt" viewBox="0 0 283.000000 283.000000"
 preserveAspectRatio="xMidYMid meet">
<metadata>
Created by potrace 1.11, written by Peter Selinger 2001-2013
</metadata>
<g transform="translate(0.000000,283.000000) scale(0.100000,-0.100000)"
fill="#000000" stroke="none">
<path d="M0 1415 l0 -1412 1412 1 1413 1 0 1253 c0 829 -3 1252 -10 1253 -5 1
-75 2 -155 3 l-145 1 -3 156 -2 156 -155 0 c-134 0 -155 -3 -156 -16 0 -9 -1
-290 -2 -626 l-2 -610 -782 -3 -783 -2 0 22 c-1 13 -2 295 -3 628 l-2 605
-312 1 -313 1 0 -1412z"/>
<path d="M1574 2505 c-3 -6 -3 -147 -2 -315 l3 -305 153 0 c83 0 152 2 153 5
4 20 3 620 -1 621 -38 7 -303 2 -306 -6z"/>
</g>
</svg>
